PathFileType	4	(x/y/z)	S09_M20_T19
DataRate	CameraRate	NumFrames	NumMarkers	Units	OrigDataRate	OrigDataStartFrame	OrigNumFrames
240	240	6	51	mm	240	209	556
Frame#	Time	Sternum			R.Acromium			L.Acromium			Top.Head			R.ASIS			L.ASIS			R.PSIS			L.PSIS			R.Great.Tro			L.Great.Tro			R.Iliac.Crest			L.Iliac.Crest			V.Sacral			R.Thigh.Upper.Post			R.Thigh.Lower.Ant			R.Thigh.Lower.Post			R.Thigh.Upper.Ant			R.Knee.Lat			R.Knee.Med			R.Shank.Upper.Post			R.Shank.Lower.Ant			R.Shank.Lower.Post			R.Shank.Upper.Ant			R.Ankle.Lat			R.Ankle.Med			R.Heel.Upper			R.Heel.Med			R.Heel.Lat			R.Toe.Lat			R.Toe.Med			R.Toe.Tip			L.Thigh.Upper.Post			L.Thigh.Lower.Ant			L.Thigh.Lower.Post			L.Thigh.Upper.Ant			L.Knee.Lat			L.Knee.Med			L.Shank.Upper.Post			L.Shank.Lower.Ant			L.Shank.Lower.Post			L.Shank.Upper.Ant			L.Ankle.Lat			L.Ankle.Med			L.Heel.Upper			L.Heel.Med			L.Heel.Lat			L.Toe.Lat			L.Toe.Med			L.Toe.Tip			Cervical.Spine			Back			
		X1	Y1	Z1	X2	Y2	Z2	X3	Y3	Z3	X4	Y4	Z4	X5	Y5	Z5	X6	Y6	Z6	X7	Y7	Z7	X8	Y8	Z8	X9	Y9	Z9	X10	Y10	Z10	X11	Y11	Z11	X12	Y12	Z12	X13	Y13	Z13	X14	Y14	Z14	X15	Y15	Z15	X16	Y16	Z16	X17	Y17	Z17	X18	Y18	Z18	X19	Y19	Z19	X20	Y20	Z20	X21	Y21	Z21	X22	Y22	Z22	X23	Y23	Z23	X24	Y24	Z24	X25	Y25	Z25	X26	Y26	Z26	X27	Y27	Z27	X28	Y28	Z28	X29	Y29	Z29	X30	Y30	Z30	X31	Y31	Z31	X32	Y32	Z32	X33	Y33	Z33	X34	Y34	Z34	X35	Y35	Z35	X36	Y36	Z36	X37	Y37	Z37	X38	Y38	Z38	X39	Y39	Z39	X40	Y40	Z40	X41	Y41	Z41	X42	Y42	Z42	X43	Y43	Z43	X44	Y44	Z44	X45	Y45	Z45	X46	Y46	Z46	X47	Y47	Z47	X48	Y48	Z48	X49	Y49	Z49	X50	Y50	Z50	X51	Y51	Z51	

209	0.86667	382.13	1148.8	281.57	223.72	1382	439.25	219.59	1380.3	128.34	212.74	1684.3	278.72	376.72	996.48	378.78	330.3	962.64	137.74	143.48	982.99	343.2	136.09	979.61	253.65	335.18	911.89	466.24	238.26	865.85	87.043	278.76	1065.1	439.25	212.67	1046	113.83	123.55	944.25	299.53	433.57	671.26	428.44	522.85	608.84	358.94	455.61	585.35	393.19	495.91	688.06	395.89	526.35	527.37	351.79	490.26	516.68	236.76	473.53	345.95	378.09	538.88	288.38	348.75	471.57	269.67	368.78	534.56	361.81	360.92	491.88	90.352	347.16	502.2	100.09	254.6	422.47	76.022	300.41	431.76	45.62	269.86	425.93	43.752	334.37	589.21	44.27	372.99	629.15	50.366	264.96	677.31	72.626	306.23	156.95	627.37	144.29	210.89	521.84	98.086	161.79	535.64	145.44	206.17	611.14	92.669	177.49	459.54	102.52	253.84	430.37	218.12	57.226	418.27	115.82	20.54	313.55	110.08	-3.1552	371.35	127.44	81.919	360.82	99.472	-150.34	234.71	152.37	-126.47	205.08	237.68	-185.13	282.64	222.73	-198.22	263.56	258.3	-218.33	278.3	200.67	-209.09	114.43	124.19	-170.2	69.737	221.51	-157.52	36.75	156.09	138.28	1423.9	294.86	115.36	1151.1	276.01
210	0.87083	387.44	1149.4	282.08	229.29	1382.6	439.76	224.69	1380.8	128.9	218.16	1684.9	279.18	382.01	997.21	379.38	335.41	962.87	138.47	148.74	983.63	343.96	141.22	979.75	254.44	340.58	912.77	466.93	243.73	865.64	88.166	284.12	1066	439.87	217.7	1046	114.6	128.82	944.61	300.47	437.89	671.5	429.09	526.8	608.64	359.48	459.49	585.49	393.81	500.29	687.99	396.46	529.82	527.07	352.34	493.3	516.62	237.28	475.48	345.99	378.35	540.55	287.99	349.17	473.03	269.72	368.98	536.64	361.45	361.36	492.06	90.301	347.26	502.41	100.09	254.72	422.54	76.065	300.48	431.8	45.689	269.91	425.99	43.781	334.41	589.31	44.074	373.14	629.22	50.037	264.96	677.56	72.006	306.3	165.39	626.23	144.31	220.37	521.49	97.501	171.36	534.45	145.13	214.61	610.76	92.472	187.76	459.37	101.66	264.86	430.03	217.23	68.076	418.77	115.38	30.742	314.23	109.79	7.4345	372.23	127.21	92.35	361.14	98.917	-140.21	236.81	152.52	-116.7	206.96	237.93	-174.11	285.37	222.92	-187.61	266.43	258.46	-207.37	281.5	200.76	-200.08	117.21	124.24	-162.09	71.759	221.6	-149.86	37.472	156.03	143.6	1424.4	295.53	120.63	1151.7	276.65
211	0.875	392.7	1150	282.53	234.84	1383.1	440.26	229.73	1381.3	129.43	223.58	1685.5	279.65	387.26	997.92	379.91	340.41	963.17	139.13	153.95	984.34	344.75	146.28	979.97	255.27	345.91	913.68	467.61	249.09	865.53	89.279	289.5	1066.9	440.46	222.62	1046.2	115.41	134.03	945.05	301.46	442.04	671.74	429.73	530.59	608.41	360.04	463.18	585.62	394.42	504.51	687.89	397.05	533.11	526.76	352.92	496.21	516.55	237.82	477.28	346.03	378.6	542.1	287.62	349.61	474.36	269.76	369.17	538.58	361.09	361.82	492.22	90.255	347.37	502.61	100.09	254.84	422.6	76.101	300.54	431.83	45.752	269.95	426.03	43.804	334.45	589.4	43.9	373.28	629.28	49.761	264.98	677.78	71.454	306.37	173.82	625.21	144.35	229.86	521.26	96.95	180.93	533.38	144.85	223.05	610.47	92.29	198.08	459.29	100.85	275.82	429.88	216.43	78.998	419.26	114.9	41.088	314.86	109.55	18.119	373.08	126.94	102.9	361.44	98.413	-129.94	238.83	152.7	-106.79	208.84	238.22	-163.22	287.87	223.12	-177.09	269.04	258.61	-196.48	284.37	200.83	-190.53	119.79	124.26	-153.39	73.724	221.69	-141.45	38.327	156.01	148.88	1425	296.2	125.84	1152.3	277.32
212	0.87917	397.91	1150.5	282.93	240.35	1383.7	440.76	234.71	1381.9	129.95	229	1686.2	280.12	392.46	998.62	380.37	345.3	963.54	139.72	159.11	985.11	345.58	151.29	980.27	256.13	351.16	914.6	468.29	254.34	865.5	90.381	294.89	1067.9	441.02	227.44	1046.4	116.25	139.18	945.57	302.47	446.03	671.96	430.36	534.21	608.15	360.62	466.71	585.74	395.04	508.58	687.77	397.65	536.24	526.44	353.52	499	516.47	238.35	478.95	346.07	378.83	543.54	287.26	350.08	475.58	269.81	369.34	540.39	360.75	362.31	492.35	90.213	347.47	502.79	100.12	254.96	422.64	76.133	300.6	431.85	45.811	269.99	426.07	43.823	334.49	589.48	43.744	373.43	629.33	49.533	265	677.98	70.962	306.46	182.25	624.29	144.38	239.35	521.15	96.436	190.5	532.44	144.59	231.48	610.3	92.124	208.45	459.3	100.06	286.7	429.92	215.72	89.981	419.72	114.36	51.569	315.47	109.37	28.887	373.88	126.62	113.57	361.73	97.966	-119.55	240.77	152.91	-96.748	210.71	238.56	-152.46	290.15	223.32	-166.65	271.37	258.75	-185.68	286.9	200.88	-180.45	122.17	124.26	-144.11	75.615	221.79	-132.27	39.297	156.02	154.13	1425.7	296.85	131	1153	278.03
213	0.88333	403.07	1151.1	283.27	245.83	1384.3	441.24	239.63	1382.5	130.44	234.41	1687	280.58	397.61	999.32	380.77	350.09	963.99	140.24	164.22	985.94	346.43	156.24	980.65	257.02	356.34	915.53	468.96	259.47	865.56	91.467	300.29	1068.9	441.54	232.15	1046.7	117.1	144.28	946.16	303.52	449.86	672.17	430.98	537.69	607.87	361.22	470.07	585.85	395.65	512.49	687.62	398.27	539.2	526.12	354.14	501.71	516.39	238.89	480.49	346.1	379.06	544.88	286.92	350.56	476.71	269.86	369.51	542.08	360.43	362.81	492.46	90.174	347.58	502.95	100.15	255.09	422.67	76.16	300.65	431.86	45.866	270.02	426.1	43.837	334.52	589.54	43.601	373.58	629.38	49.35	265.03	678.15	70.524	306.56	190.68	623.49	144.41	248.84	521.17	95.96	200.07	531.63	144.34	239.91	610.23	91.974	218.86	459.4	99.319	297.51	430.15	215.11	101.02	420.18	113.79	62.177	316.03	109.25	39.73	374.64	126.27	124.34	362.02	97.576	-109.03	242.61	153.16	-86.568	212.57	238.94	-141.86	292.19	223.53	-156.31	273.42	258.88	-174.99	289.1	200.92	-169.86	124.33	124.26	-134.23	77.417	221.9	-122.34	40.36	156.06	159.35	1426.4	297.5	136.11	1153.7	278.76
214	0.8875	408.18	1151.8	283.55	251.27	1385	441.71	244.48	1383.1	130.91	239.83	1687.7	281.05	402.71	1000	381.12	354.79	964.51	140.69	169.27	986.84	347.3	161.15	981.12	257.94	361.43	916.47	469.62	264.5	865.71	92.536	305.7	1069.9	442.04	236.78	1047.1	117.96	149.32	946.83	304.57	453.53	672.38	431.59	541.01	607.58	361.84	473.27	585.95	396.26	516.27	687.46	398.89	541.99	525.79	354.77	504.35	516.31	239.42	481.91	346.14	379.27	546.12	286.59	351.07	477.74	269.91	369.68	543.65	360.12	363.32	492.55	90.138	347.69	503.1	100.2	255.23	422.69	76.186	300.7	431.87	45.92	270.05	426.12	43.849	334.54	589.59	43.468	373.72	629.41	49.206	265.07	678.31	70.133	306.68	199.09	622.8	144.45	258.32	521.3	95.524	209.63	530.94	144.11	248.33	610.27	91.84	229.32	459.59	98.615	308.23	430.57	214.6	112.09	420.62	113.17	72.903	316.56	109.19	50.637	375.36	125.88	135.21	362.3	97.246	-98.406	244.35	153.43	-76.253	214.39	239.36	-131.4	294	223.74	-146.06	275.18	259	-164.4	290.96	200.95	-158.8	126.24	124.24	-123.77	79.118	222.01	-111.67	41.494	156.13	164.53	1427.1	298.13	141.17	1154.4	279.53
